<svg xmlns="http://www.w3.org/2000/svg" width="20" height="20.001" viewBox="0 0 20 20.001">
    <g data-name="그룹 9350">
        <path data-name="패스 14603" d="M21.25 11.25a10 10 0 1 1-10-10 9.972 9.972 0 0 1 10 10" transform="translate(-1.25 -1.25)" style="fill:#fff"/>
        <g data-name="패스 14604" style="stroke-linecap:round;stroke-linejoin:round;fill:#bbb">
            <path d="M11.25 20.5a9.264 9.264 0 0 1-7.63-4.02A9.21 9.21 0 0 1 2 11.25C2 6.15 6.15 2 11.25 2s9.25 4.15 9.25 9.25c0 1.877-.56 3.686-1.62 5.232a9.264 9.264 0 0 1-7.63 4.019z" style="stroke:none" transform="translate(-1.25 -1.25)"/>
            <path d="M11.25 19.75c2.8 0 5.42-1.38 7.011-3.692a8.465 8.465 0 0 0 1.489-4.808c0-4.687-3.813-8.5-8.5-8.5-4.687 0-8.5 3.813-8.5 8.5 0 1.725.515 3.387 1.487 4.806a8.514 8.514 0 0 0 7.013 3.695m0 1.5a9.998 9.998 0 0 1-10-10c0-5.523 4.478-10.001 10-10.001s10 4.478 10 10a9.998 9.998 0 0 1-10 10z" style="fill:#bbb;stroke:none" transform="translate(-1.25 -1.25)"/>
        </g>
        <path data-name="패스 14605" d="M20.438 10.96a2.88 2.88 0 1 1-2.88-2.88 2.88 2.88 0 0 1 2.88 2.88" transform="translate(-7.558 -3.365)" style="stroke:#fff;fill:#fff"/>
        <circle data-name="타원 75" cx="2.88" cy="2.88" r="2.88" transform="translate(7.12 5.066)" style="stroke-width:1.5px;fill:none;stroke:#fff;stroke-linecap:round;stroke-linejoin:round"/>
        <path data-name="패스 14606" d="M21.351 27.72A10.368 10.368 0 0 1 13 31.8a10.368 10.368 0 0 1-8.358-4.08A5.112 5.112 0 0 1 9.66 24.1h6.674a5.112 5.112 0 0 1 5.017 3.624" transform="translate(-2.997 -11.801)" style="fill:#fff"/>
        <g data-name="패스 14607" style="fill:none;stroke-linecap:round;stroke-linejoin:round">
            <path d="M21.351 27.72A10.368 10.368 0 0 1 13 31.8a10.368 10.368 0 0 1-8.358-4.08A5.112 5.112 0 0 1 9.66 24.1h6.674a5.112 5.112 0 0 1 5.017 3.62z" style="stroke:none" transform="translate(-2.997 -11.801)"/>
            <path d="M9.66 25.596c-1.433 0-2.7.734-3.304 1.85 1.636 1.8 4.061 2.855 6.64 2.855 2.58 0 5.006-1.055 6.641-2.855-.603-1.116-1.87-1.85-3.303-1.85H9.66m0-1.5h6.674c2.42 0 4.453 1.537 5.017 3.624-1.827 2.462-4.888 4.08-8.354 4.08-3.467 0-6.528-1.618-8.355-4.08.564-2.087 2.597-3.624 5.018-3.624z" style="fill:#bbb;stroke:none" transform="translate(-2.997 -11.801)"/>
        </g>
    </g>
</svg>
